<?xml version="1.0" encoding="UTF-8"?>
<svg id="Capa_2" data-name="Capa 2" xmlns="http://www.w3.org/2000/svg" viewBox="0 0 1085.62 926.04">
  <defs>
    <style>
      .cls-1 {
        fill: #f7f1e5;
      }
    </style>
  </defs>
  <g id="Capa_1-2" data-name="Capa 1">
    <g>
      <path class="cls-1" d="M204.35,699.36h18.64c4.66,0,6.99-1.44,6.99-4.32,0-1.11-.56-3-1.66-5.66l-101.17-211c-3.33-6.87-5.71-11.37-7.16-13.48-1.45-2.11-3.16-3.16-5.16-3.16-2.22,0-4.11,1.05-5.66,3.16-1.55,2.11-3.99,6.6-7.32,13.48L1.66,689.38c-1.11,2.66-1.66,4.55-1.66,5.66,0,2.89,2.22,4.32,6.66,4.32h17.31c3.55,0,6.21-.67,7.99-2,1.77-1.33,3.55-3.99,5.32-7.99l76.88-165.74,76.88,165.74c2,3.99,3.83,6.66,5.49,7.99,1.66,1.33,4.27,2,7.82,2Z"/>
      <path class="cls-1" d="M404.03,697.7c1.77,1.11,4.55,1.66,8.32,1.66h19.64c2.44,0,4.27-.27,5.49-.83,1.22-.55,1.83-1.5,1.83-2.83,0-1.77-.89-3.88-2.66-6.32l-57.24-88.53c14.2-4.88,25.29-12.48,33.28-22.8,7.99-10.32,11.98-23.46,11.98-39.44,0-48.14-31.62-72.22-94.85-72.22h-63.57c-2.66,0-4.55.5-5.66,1.5-1.11,1-1.66,2.94-1.66,5.82v218.32c0,2.89.55,4.82,1.66,5.82,1.11,1,3,1.5,5.66,1.5h18.64c2.66,0,4.55-.5,5.66-1.5,1.11-1,1.66-2.94,1.66-5.82v-191.03c0-1.55.28-2.6.83-3.16.55-.55,1.61-.83,3.16-.83h31.95c19.97,0,35.22,3.49,45.76,10.48,10.54,6.99,15.81,18.03,15.81,33.11,0,26.41-16.76,41.38-50.26,44.93-3.33.22-4.99,1.22-4.99,3,0,1.33.67,2.89,2,4.66l61.24,97.18c2.44,3.77,4.55,6.21,6.32,7.32Z"/>
      <path class="cls-1" d="M477.58,699.36h128.13c2.66,0,4.55-.5,5.66-1.5,1.11-1,1.66-2.94,1.66-5.82v-16.97c0-2.88-.56-4.82-1.66-5.82-1.11-1-2.99-1.5-5.66-1.5h-98.18c-1.56,0-2.61-.28-3.16-.83-.56-.55-.83-1.5-.83-2.83v-190.37c0-2.88-.56-4.82-1.66-5.82-1.11-1-3-1.5-5.66-1.5h-18.64c-2.66,0-4.55.5-5.66,1.5-1.11,1-1.66,2.94-1.66,5.82v218.32c0,2.89.55,4.82,1.66,5.82,1.11,1,2.99,1.5,5.66,1.5Z"/>
      <path class="cls-1" d="M1083.96,467.89c-1.11-1-3-1.5-5.66-1.5h-18.64c-2.66,0-4.55.5-5.66,1.5-1.11,1-1.66,2.94-1.66,5.82v158.75l-135.12-159.42c-3.33-3.99-5.99-6.71-7.99-8.15-2-1.44-3.88-2.17-5.66-2.17-2.44,0-4.22.89-5.32,2.66-1.11,1.78-1.66,4.55-1.66,8.32v218.32c0,2.89.55,4.82,1.66,5.82,1.11,1,3,1.5,5.66,1.5h18.64c2.66,0,4.55-.5,5.66-1.5,1.11-1,1.66-2.94,1.66-5.82v-158.75l135.12,159.42c3.55,3.99,6.32,6.71,8.32,8.16,2,1.44,3.88,2.16,5.66,2.16,4.44,0,6.66-3.66,6.66-10.98v-218.32c0-2.88-.56-4.82-1.66-5.82Z"/>
      <path class="cls-1" d="M794.92,430.21c-1.11-7.56-2.03-12.56-2.77-15-.75-2.45-2.07-3.97-3.97-4.57-2.12-.67-4.23-.23-6.35,1.31-2.12,1.54-5.79,5.1-11.04,10.65l-109.57,117.93c-37.78-9.92-66.6-24.3-62.55-59.11.58-9.05,3.37-18.08,8.1-26.28,14.51,8.64,32.31,12.43,50.47,10.63,10.62-1.22,29.8-5.44,39.03-20.18l.54-1.02c3.93-8.88,2.84-17.7-3.06-24.85-10.68-12.98-35.15-16.9-51.6-13.12-14.34,3.01-27.52,10.17-38.33,20.81-9.54-12.27-11.85-29.22-6.67-49.22,7.15-28.53,23.27-52.56,45.34-79.13,6.55,1.56,14.19,2,18.52-4.25,3.87-5.57,2.53-11.18-2.81-19.45,1.81-.64,3.63-1.27,5.41-1.9,47.01-16.43,125.69-43.95,146.54-110.07,20.83-66.05-15.97-136.74-82.03-157.57-66.05-20.83-136.74,15.97-157.57,82.02-23.24,73.7,27.83,141.37,57.2,179.02-7.03,3.87-10.35,7.94-10.26,13.96.07,4.82,2.73,8.26,6.16,10.76-19.41,23.9-37.32,50.41-45.2,81.83-8.89,34.31,1.6,55.96,11.96,68.07.36.42.73.84,1.1,1.25-7.07,11.33-11.22,24.1-12.04,36.94-5.26,45.19,27.14,64.76,67.03,76.7l-34.68,37.32c-1.86,2.2-2.96,3.84-3.29,4.9-.87,2.75.81,4.79,5.05,6.13l16.51,5.2c3.38,1.07,6.12,1.23,8.22.5,2.09-.74,4.58-2.74,7.48-6.02l35.85-39.29c3.94.85,7.87,1.69,11.76,2.51,40.63,8.6,79.55,16.85,93.47,40.13l5.56,42.88c.7,4.41,1.65,7.5,2.84,9.27,1.19,1.77,3.47,3.19,6.86,4.26l17.77,5.6c4.44,1.4,7.1.73,7.97-2.02.33-1.06.37-3.03.11-5.9l-33.04-231.66ZM646.29,425.45c12.62-2.9,28.17,1.2,32.58,6.55.95,1.15,1.3,2.12.56,4.11-5.48,7.75-19.94,9.98-24.22,10.48-13.04,1.26-25.76-1.1-36.28-6.7,7.95-7.37,17.32-12.33,27.36-14.43ZM588.94,93.65c17.63-55.91,77.45-87.05,133.36-69.42,55.91,17.63,87.06,77.46,69.43,133.37-17.94,56.9-90.91,82.42-134.5,97.65-3.99,1.4-7.68,2.69-11.04,3.9-.42-.54-.85-1.08-1.28-1.64-26.8-34.31-76.68-98.17-55.97-163.86ZM697.32,548.76c-.21-.04-.42-.09-.63-.13l72.24-79.15,13.89,107.16c-22.56-14.54-55.08-21.43-85.49-27.87Z"/>
      <polygon class="cls-1" points="186.38 912.69 185.42 912.05 184.61 911.73 184.29 911.09 183.49 910.12 182.37 909.8 181.72 909 180.6 908.67 179.63 908.67 178.51 908.84 177.54 909.16 176.58 909.32 176.26 909.32 175.29 909.8 174.65 909.8 173.85 909.96 173.36 910.12 172.08 910.28 171.76 910.44 170.79 910.28 169.83 910.6 169.51 911.09 168.7 911.09 168.22 910.92 167.57 910.92 166.93 910.92 165.97 911.09 164.84 911.09 163.88 911.25 163.4 911.25 161.95 911.09 161.15 911.25 160.18 911.09 159.54 910.92 158.57 910.92 157.61 910.92 156.65 910.76 156 910.44 155.04 910.28 154.4 909.96 153.11 909.8 152.79 909 151.82 909 151.18 909.64 150.21 909.48 149.41 909.16 148.93 908.51 148.77 907.55 148.13 907.23 147.32 908.84 146.52 908.67 145.72 908.03 144.59 907.71 144.11 907.71 143.79 907.39 142.5 907.23 141.7 906.91 140.89 906.58 139.93 906.42 139.29 906.1 138.64 905.62 137.51 905.14 137.19 904.98 136.55 904.66 135.75 904.17 134.3 903.69 133.17 902.89 132.7 902.73 131.89 902.08 131.09 901.6 130.12 900.8 129.32 900.16 128.19 899.03 127.39 898.23 127.07 897.9 125.62 895.81 125.14 894.53 124.17 892.44 124.02 891.8 123.85 890.83 123.69 889.22 123.53 888.58 123.37 887.46 123.21 887.13 123.21 886.01 123.05 885.2 122.89 881.83 122.89 880.7 122.89 879.74 122.89 878.45 123.05 877.49 123.05 876.36 123.21 874.92 123.37 874.27 123.37 872.99 123.53 872.02 123.85 869.77 124.02 868.65 124.17 867.52 124.49 866.88 124.82 865.59 125.14 864.47 125.46 863.66 125.62 862.54 125.78 861.41 126.42 859.65 126.91 858.52 127.07 858.2 127.55 857.56 127.87 856.59 128.36 855.79 128.83 853.86 128.83 853.06 129.16 852.57 129.96 852.41 130.44 851.77 130.61 851.45 131.25 850.8 131.57 850.48 132.05 849.68 133.02 848.72 133.66 848.23 134.46 847.59 134.95 847.27 136.07 846.95 136.87 846.79 138.32 846.79 139.93 846.95 141.38 847.27 141.7 847.27 142.66 847.75 144.11 848.55 144.91 848.88 145.72 848.88 146.68 849.68 147.97 849.84 148.77 850.48 149.57 850.97 150.21 851.13 150.86 851.29 151.66 851.93 152.79 852.41 153.59 853.38 154.88 853.86 155.68 854.5 156.33 854.98 157.13 855.47 158.25 856.27 159.22 857.23 159.7 857.4 160.34 858.04 160.99 858.84 161.79 859.32 162.43 859.81 163.23 860.61 164.2 861.41 165.01 862.54 165.97 863.83 167.25 864.79 167.57 865.43 168.7 866.24 169.18 866.56 170.15 867.04 171.11 867.04 172.88 867.36 174.65 866.72 175.93 865.75 176.58 865.59 177.38 865.27 178.03 864.31 178.35 863.02 178.19 861.57 178.83 859.81 178.99 858.68 178.83 857.88 178.83 857.07 178.67 856.43 178.19 855.47 177.54 854.5 176.26 853.22 175.93 852.89 174.97 852.25 174.65 851.61 173.85 850.8 173.04 850.48 173.52 849.68 173.2 849.2 172.4 848.72 171.27 848.72 169.99 847.75 169.02 846.79 168.54 846.46 167.25 845.82 166.45 845.18 165.01 844.05 163.72 843.25 163.23 842.77 162.27 842.12 161.63 841.32 160.67 841 159.86 840.68 158.74 839.71 157.61 839.39 156.65 838.75 155.68 838.11 154.55 837.62 153.75 837.46 153.27 836.98 150.53 835.69 149.89 835.53 149.09 835.21 148.77 835.05 147.8 834.41 146.84 834.25 145.87 833.77 144.91 833.44 142.18 832.96 141.05 832.48 139.93 832.32 137.68 832 134.95 831.84 133.34 831.84 132.37 832.48 131.25 832.32 130.28 832.48 129.32 832.48 128.36 832.8 127.55 833.28 126.91 833.93 125.46 834.09 124.66 834.57 123.85 835.37 122.89 835.69 121.12 837.3 120.8 837.94 120 838.59 119.83 839.23 119.19 839.55 118.55 841 118.23 841.32 117.26 842.12 116.62 843.25 115.98 843.89 115.81 844.7 115.49 845.18 114.85 846.14 114.53 846.95 114.05 848.23 113.4 848.72 113.08 849.52 112.12 849.84 111.64 850.64 112.28 851.93 111.96 852.73 111.64 853.86 111.32 854.82 110.35 857.23 110.19 858.04 110.35 858.36 109.87 859.32 109.55 861.41 109.23 862.7 108.74 864.31 108.42 865.92 108.26 867.2 108.1 868.33 108.1 869.45 107.62 870.74 107.45 872.18 107.62 873.15 107.45 874.11 107.62 875.08 107.3 876.04 107.13 877.01 107.13 880.7 107.3 881.83 107.3 884.56 107.45 885.69 107.45 886.49 107.62 887.29 107.62 889.38 107.94 891.31 108.1 892.44 108.42 893.24 108.42 894.69 108.9 895.65 109.23 896.78 109.38 897.9 109.55 899.03 109.87 900.48 110.51 901.44 110.83 902.24 111.32 903.05 111.79 904.5 112.28 905.46 112.92 906.1 113.57 907.07 114.37 907.87 115.33 908.35 115.49 909 117.1 910.44 118.55 911.57 119.67 912.53 120.64 913.34 121.6 914.14 122.73 914.78 123.69 915.27 124.98 916.07 125.62 916.39 126.59 916.71 126.91 917.03 128.68 918 129.64 918.32 130.44 918.8 131.09 918.96 132.05 919.28 133.34 919.6 134.3 920.09 135.59 920.57 135.91 920.73 137.19 921.05 138.64 921.37 139.77 921.86 140.41 922.02 141.38 922.5 142.34 922.66 143.14 922.82 144.11 923.14 145.07 923.46 145.4 924.43 146.52 924.75 147.64 923.78 148.93 924.11 149.57 924.59 150.7 924.75 151.66 925.07 152.47 925.07 153.59 925.23 154.72 925.39 155.52 925.55 156.48 925.55 157.61 925.88 158.74 926.04 159.06 926.04 159.86 925.88 161.15 926.04 162.43 925.88 163.56 926.04 165.33 925.71 166.13 925.71 166.61 925.55 168.86 925.55 169.83 925.39 170.95 925.07 172.08 924.91 172.72 924.75 173.85 924.59 174.49 924.59 175.29 924.43 176.1 924.43 178.19 924.11 178.99 923.95 182.04 923.14 182.53 922.98 183.17 922.98 184.14 922.66 185.26 922.18 185.74 922.18 186.71 921.53 187.35 920.73 187.51 919.93 187.51 918.96 187.67 918.16 187.51 917.84 187.67 916.71 187.67 915.75 187.35 914.62 186.38 912.69"/>
      <path class="cls-1" d="M295.07,898.87l-.64-1.12-1.61-1.93-.97-.16-1.28-.48-.97.32-.64.64-.97.48-.32.48-.97.8-.8.8-.8.8-1.13.64-.64.48-.97.48-.64.32-.64.16-1.12.8-1.45.48-.8.32-.96.48-.8.32h-.97l-.8.32h-1.44l-1.12.16-1.45.16-1.28.16-1.13-.16-1.44.16-.48-.32-.96-.32-1.12-.32-.97-.32-1.12-.32-1.12-.32-.97-.48-.96-.16-.97-.48-1.12-.32h-.8l-.48-.16-1.29-.64-1.61-.32-1.28-.32h-3.22l-1.12.16h-1.93l-.8.16h-1.45l-1.29.16-.8.16h-.64l-1.12-.16h-.97l-.32-.8h-.8l-.64.96h-.48l-.32.16h-.97l-.8.16-.8-.16h-.96l-.8-.48-1.12-.32-.97-.48-.8-.16-.8-.32-.8-.96-1.29-.32-.64-.48-.96-.96h-.8l-.33.32-.48-.32-.16-.64-.64-.48-.97-.48-1.12-.64h-.32l-.97-.96-.64-.32-.16-.32-.64-.8-.8-.64-.16-.32-.8-.96-.48-1.12-.16-.8.16-.48.33-.48.16-.64.48-.16.97-.48.8-.48.32-.16,1.76-.32.48-.16.48-.16.64-.16.8-.16.48-.48h.64l.33-.32,1.12-.16.48-.64.48.32,1.77-.32.8-.16,1.12-.48.97-.32.8-.32h1.61l.97-.16.8-.48,1.12-.16.97-.48h.96l.8-.32h1.12l.33-.16.64.64h1.12l.48-.8,1.44-.32.65-.16,1.28-.16,1.29-.32.64-.32.8.16.97-.32.8-.32h.32l1.44-.32,1.13-.16.96-.16,1.77-.48h1.12l.64-.48.97-.16.8-.16,1.29-.32.64-.16.48.48-.16.8.48.16.48-1.13.48-.48.97-.16,1.44-.64h.33l.64-.16h.8l.8-.16,1.12-.16,1.44-.48.65-.32h2.25l1.12-.48.97-.32,1.44-.16,1.12-.32.8-.8.32-.8.97-.8.64-.96.65-1.61.32-1.12-.16-.64.33-.8-.48-.8.16-1.45-.48-1.12-.48-.64-.65-1.28-.64-.8-.97-.96-.16-.64-.65-.64-.96-.64-1.29-1.13-.64-.96-.8-.8-.48-.48-.97-.64-.8-.96-.8-.64-.48-.32-1.45-1.29-.48-.48-.8-.16-.33-.32-1.28-.64-.48-.48h-.8l-.48-.64-1.12-.8-.97-.8-1.28-.64-.65-.64-.96-.48-.48-.48-.97-.64-1.28-.64-.65-.48-.8-.48-.96-.64-.97-.32-.8-.16-.96-.48h-.8l-1.12-.48-1.61-.32h-.48l-1.61-.32-.64.16-1.29-.16-1.29.16-1.61.16-1.76-.16-.8.32h-.8l-1.13.48h-1.12l-.8.32-.96.32-.97.16-.96.48-.65.64-.48.32-.65.32-1.61.32-.96.96-.97.8-.8.32-.16.32-1.28.64-.8.64-.8.48-.48.8-.32.16-1.12.48-.65.96-.64.8-.97.8-.48.64-.48,1.12-.97.64-.48.96-.64.8-.8.8-.64.96-.65.8-.64,1.12-.48,1.45-.8.32-1.12-.8-.48.8.8,1.45-.32.8-.32,1.44-.8.8-.48.96-.32,1.13-.97.48-.32.96-.48,1.29-.32.8-.48.8-.32.96-.16,1.28-.16.32-.64,1.44-.32.97-.16.96-.97.32-1.44.32-1.93.8-.97.64-.8.8-.64.96v1.29l-.32.96.16,1.12.65.64,1.12.64.48.96.64.8,1.29.96-.32.8-.16,1.12-.32,1.29v1.12l.16,1.28.16,1.29.16.48v1.29l.32.8.32.96.16.64.48.32.33,1.29.64.64-.16.97.33.32v.32l1.12.16.8.8.8.48.8.8.96.96,1.61.96.97.8.8.48.8.64.64.16.48.8.96.32.97.8.96.64.8.32.97.48.64.64,1.13.32.64.32.96.64.97.32.64.32.97.48,1.12.16.97.32.96.32.97.32,1.12.16h1.12l1.12.64h6.27l1.13-.16,1.28-.16h1.13l1.28-.16h.8l1.12-.32h1.45l1.12.16h2.09l.8-.16h2.57l1.12.64.97.16.8.32.96.32.97.16.96.48h.65l.96.64,1.13.32.96.16.32.16,1.29.48,1.61.32h.48l.96.16.65-.16,1.12.32h.64l.48-.16h.97l.64-.16h.32l.97.16h2.09l1.13-.16.8-.16.48-.16.32.16.33-.16,1.12-.16.96-.32,1.13-.32.96-.16.8-.16.8-.16,1.61-.64,1.12-.32.97-.64,1.28-.32.65-.64,1.12-.96.48-.32.96-.64.48-.8h.48l.32-.32-.16-.64.32-.32h.96l.65-.64.16-.32.65-.48.64-.64.48-.8v-1.44l.32-.96.16-.8-.33-1.13.65-.96.16-1.12-.16-1.61-.65-.8ZM219.69,869.93l.32-.48.32-.96.48-1.29.48-.32.16-.32.48-.64.8-.97.32-1.28.33-.64.32-.16.16-.48.32-.48.65-.48.48-.64.64-1.13.97-1.12.32-.64.48-.48.32-.32.8-.8.32-.32.96-.8.8-.8.33-.32,1.28-.48.97-.8,1.29-.8.96-.32.65-.32.48-.16.97-.16,1.12-.16,1.12-.32.8.16.32-.16h2.74l1.28.16h.97l.64.48.97.32.96.48.8.8.8.32.97.64h.8l.48.8.8.32.64-.16.32.16v1.12l.97.48.8.64.8.48.32.48,1.29.48.48.48.65.8-.16.64-.48.32-.64.16-1.12.16-.48.16-.8.32h-.32l-.48.16-.8.16-.96.32-1.13.16-.8.16-1.44.32h-.32l-1.61.16-.48.16-.48.16h-.48l-.48.16-.8.16-.8.16-.8.64-.64.16h-.33l-.32.16h-.96l-.8.32h-1.45l-1.12.32h-.64l-1.12.16-.48.32h-.65l-.64.16-.96.32-.97.16-1.29.32-.8.16-.16.48-.48.16-.64-.48h-.65l-1.12.32-.64.32-.97.32-.8.32-.8.32-.48.16-1.28.32-3.06,1.12.16-.48Z"/>
      <polygon class="cls-1" points="330.3 910.76 330.3 909.96 330.14 908.67 329.82 907.55 329.98 906.74 329.98 905.78 329.98 904.66 329.82 903.69 329.82 902.41 329.5 901.12 329.5 900.16 329.34 898.87 329.5 898.23 329.17 897.42 329.17 896.62 329.17 895.65 329.17 895.33 329.17 894.05 329.17 892.92 329.02 891.96 328.85 890.99 328.7 889.71 328.21 888.74 328.21 887.62 328.05 886.17 327.73 885.2 327.89 884.24 327.73 883.44 327.73 882.31 327.41 881.35 327.24 880.38 327.41 878.78 327.24 877.97 327.24 876.85 327.09 875.88 327.09 874.6 326.92 873.15 326.76 872.83 326.6 871.7 326.44 870.42 326.28 869.13 326.12 867.68 326.12 867.04 326.12 865.75 326.28 864.79 326.12 863.5 325.64 862.38 325.8 860.77 325.32 859.32 325.32 858.2 325.32 856.59 325.16 856.27 325 854.66 325 853.86 324.83 853.54 324.68 852.57 324.51 851.61 324.36 850.48 324.36 849.04 324.19 847.43 324.03 846.79 323.87 845.18 324.03 844.05 323.71 843.25 323.71 842.29 323.55 841.32 323.55 840.03 323.55 839.07 323.55 838.11 323.39 837.3 323.55 836.98 323.55 835.85 323.39 834.73 323.23 833.93 323.23 832.48 323.23 831.35 323.23 830.71 323.07 830.07 323.39 828.94 322.9 827.98 323.07 827.66 323.07 826.37 322.9 825.41 323.07 824.6 322.9 823.16 322.9 822.03 322.75 820.74 323.23 819.46 323.07 818.33 323.23 816.89 322.9 815.44 322.9 814.96 323.07 813.51 323.23 812.23 323.07 811.26 323.07 809.97 323.07 808.53 322.58 807.4 321.78 806.28 321.78 805.31 321.14 804.67 319.85 803.87 317.44 803.38 315.83 802.74 314.87 802.74 313.74 801.78 312.94 801.13 311.49 801.13 310.2 801.13 308.92 801.62 306.99 801.94 306.35 802.9 305.54 804.67 305.39 805.79 305.39 807.56 306.83 808.53 306.99 809.81 307.15 810.94 307.15 811.9 307.32 813.51 307.15 814.8 307.15 815.44 307.15 816.73 307.47 818.33 307.32 819.14 307.32 821.07 307.15 822.51 307.32 823.8 307.15 825.25 307.15 826.53 306.99 828.14 306.83 829.26 306.99 830.23 306.99 830.87 307.15 832.16 307.15 833.28 307.15 834.09 307.15 835.37 307.47 836.18 307.64 837.46 307.32 838.59 307.47 839.55 307.47 841 307.64 842.12 307.79 843.09 308.12 843.89 308.12 845.02 308.12 846.62 308.28 847.27 308.12 848.23 308.28 849.2 308.6 850.16 308.92 851.93 309.08 853.22 309.08 854.34 309.24 855.79 309.24 857.07 309.08 858.04 309.4 859.65 309.24 860.61 309.4 861.74 309.56 862.86 309.88 864.15 309.88 865.27 309.73 866.08 309.88 867.04 309.88 868 310.05 868.97 310.05 869.93 310.2 871.06 310.53 871.86 310.37 872.34 309.24 872.51 309.08 872.83 309.88 873.47 310.53 873.47 310.2 874.6 310.37 875.4 310.69 876.36 310.85 877.17 310.85 878.13 311.01 879.42 311.17 880.54 311.34 881.67 311.34 882.63 311.49 883.76 311.66 884.88 311.66 885.85 311.81 887.29 311.98 888.1 311.98 889.22 312.3 890.35 312.3 890.67 312.3 891.64 312.13 892.76 312.62 893.56 312.46 894.85 312.62 895.98 312.78 897.1 312.78 898.39 312.94 899.03 312.78 899.83 312.94 900.8 313.1 902.08 312.94 903.21 313.26 904.17 313.74 905.14 314.07 906.58 314.71 907.39 314.87 908.67 315.19 909.8 315.68 910.92 316.32 911.57 317.6 912.69 318.08 913.82 318.73 914.62 319.37 915.27 319.69 915.91 320.34 917.19 321.14 918.64 322.9 919.12 324.19 919.77 324.83 920.41 325.96 920.25 326.6 919.6 327.73 919.28 328.85 918.64 329.5 917.68 329.82 916.55 330.14 915.43 330.62 914.14 330.62 912.85 330.46 911.73 330.3 910.76"/>
      <path class="cls-1" d="M447.5,898.87l-.64-1.12-1.61-1.93-.97-.16-1.28-.48-.97.32-.64.64-.97.48-.32.48-.97.8-.8.8-.8.8-1.13.64-.64.48-.97.48-.64.32-.64.16-1.12.8-1.45.48-.8.32-.96.48-.8.32h-.97l-.8.32h-1.44l-1.12.16-1.45.16-1.28.16-1.13-.16-1.44.16-.48-.32-.96-.32-1.12-.32-.97-.32-1.12-.32-1.12-.32-.97-.48-.96-.16-.97-.48-1.12-.32h-.8l-.48-.16-1.29-.64-1.61-.32-1.28-.32h-3.22l-1.12.16h-1.93l-.8.16h-1.45l-1.29.16-.8.16h-.64l-1.12-.16h-.97l-.32-.8h-.8l-.64.96h-.48l-.32.16h-.97l-.8.16-.8-.16h-.96l-.8-.48-1.12-.32-.97-.48-.8-.16-.8-.32-.8-.96-1.29-.32-.64-.48-.96-.96h-.8l-.33.32-.48-.32-.16-.64-.64-.48-.97-.48-1.12-.64h-.32l-.97-.96-.64-.32-.16-.32-.64-.8-.8-.64-.16-.32-.8-.96-.48-1.12-.16-.8.16-.48.33-.48.16-.64.48-.16.97-.48.8-.48.32-.16,1.76-.32.48-.16.48-.16.64-.16.8-.16.48-.48h.64l.33-.32,1.12-.16.48-.64.48.32,1.77-.32.8-.16,1.12-.48.97-.32.8-.32h1.61l.97-.16.8-.48,1.12-.16.97-.48h.96l.8-.32h1.12l.33-.16.64.64h1.12l.48-.8,1.44-.32.65-.16,1.28-.16,1.29-.32.64-.32.8.16.97-.32.8-.32h.32l1.44-.32,1.13-.16.96-.16,1.77-.48h1.12l.64-.48.97-.16.8-.16,1.29-.32.64-.16.48.48-.16.8.48.16.48-1.13.48-.48.97-.16,1.44-.64h.33l.64-.16h.8l.8-.16,1.12-.16,1.44-.48.65-.32h2.25l1.12-.48.97-.32,1.44-.16,1.12-.32.8-.8.32-.8.97-.8.64-.96.65-1.61.32-1.12-.16-.64.33-.8-.48-.8.16-1.45-.48-1.12-.48-.64-.65-1.28-.64-.8-.97-.96-.16-.64-.65-.64-.96-.64-1.29-1.13-.64-.96-.8-.8-.48-.48-.97-.64-.8-.96-.8-.64-.48-.32-1.45-1.29-.48-.48-.8-.16-.33-.32-1.28-.64-.48-.48h-.8l-.48-.64-1.12-.8-.97-.8-1.28-.64-.65-.64-.96-.48-.48-.48-.97-.64-1.28-.64-.65-.48-.8-.48-.96-.64-.97-.32-.8-.16-.96-.48h-.8l-1.12-.48-1.61-.32h-.48l-1.61-.32-.64.16-1.29-.16-1.29.16-1.61.16-1.76-.16-.8.32h-.8l-1.13.48h-1.12l-.8.32-.96.32-.97.16-.96.48-.65.64-.48.32-.65.32-1.61.32-.96.96-.97.8-.8.32-.16.32-1.28.64-.8.64-.8.48-.48.8-.32.16-1.12.48-.65.96-.64.8-.97.8-.48.64-.48,1.12-.97.64-.48.96-.64.8-.8.8-.64.96-.65.8-.64,1.12-.48,1.45-.8.32-1.12-.8-.48.8.8,1.45-.32.8-.32,1.44-.8.8-.48.96-.32,1.13-.97.48-.32.96-.48,1.29-.32.8-.48.8-.32.96-.16,1.28-.16.32-.64,1.44-.32.97-.16.96-.97.32-1.44.32-1.93.8-.97.64-.8.8-.64.96v1.29l-.32.96.16,1.12.65.64,1.12.64.48.96.64.8,1.29.96-.32.8-.16,1.12-.32,1.29v1.12l.16,1.28.16,1.29.16.48v1.29l.32.8.32.96.16.64.48.32.33,1.29.64.64-.16.97.33.32v.32l1.12.16.8.8.8.48.8.8.96.96,1.61.96.97.8.8.48.8.64.64.16.48.8.96.32.97.8.96.64.8.32.97.48.64.64,1.13.32.64.32.96.64.97.32.64.32.97.48,1.12.16.97.32.96.32.97.32,1.12.16h1.12l1.12.64h6.27l1.13-.16,1.28-.16h1.13l1.28-.16h.8l1.12-.32h1.45l1.12.16h2.09l.8-.16h2.57l1.12.64.97.16.8.32.96.32.97.16.96.48h.65l.96.64,1.13.32.96.16.32.16,1.29.48,1.61.32h.48l.96.16.65-.16,1.12.32h.64l.48-.16h.97l.64-.16h.32l.97.16h2.09l1.13-.16.8-.16.48-.16.32.16.33-.16,1.12-.16.96-.32,1.13-.32.96-.16.8-.16.8-.16,1.61-.64,1.12-.32.97-.64,1.28-.32.65-.64,1.12-.96.48-.32.96-.64.48-.8h.48l.32-.32-.16-.64.32-.32h.96l.65-.64.16-.32.65-.48.64-.64.48-.8v-1.44l.32-.96.16-.8-.33-1.13.65-.96.16-1.12-.16-1.61-.65-.8ZM372.11,869.93l.32-.48.32-.96.48-1.29.48-.32.16-.32.48-.64.8-.97.32-1.28.33-.64.32-.16.16-.48.32-.48.65-.48.48-.64.64-1.13.97-1.12.32-.64.48-.48.32-.32.8-.8.32-.32.96-.8.8-.8.33-.32,1.28-.48.97-.8,1.29-.8.96-.32.65-.32.48-.16.97-.16,1.12-.16,1.12-.32.8.16.32-.16h2.74l1.28.16h.97l.64.48.97.32.96.48.8.8.8.32.97.64h.8l.48.8.8.32.64-.16.32.16v1.12l.97.48.8.64.8.48.32.48,1.29.48.48.48.65.8-.16.64-.48.32-.64.16-1.12.16-.48.16-.8.32h-.32l-.48.16-.8.16-.96.32-1.13.16-.8.16-1.44.32h-.32l-1.61.16-.48.16-.48.16h-.48l-.48.16-.8.16-.8.16-.8.64-.64.16h-.33l-.32.16h-.96l-.8.32h-1.45l-1.12.32h-.64l-1.12.16-.48.32h-.65l-.64.16-.96.32-.97.16-1.29.32-.8.16-.16.48-.48.16-.64-.48h-.65l-1.12.32-.64.32-.97.32-.8.32-.8.32-.48.16-1.28.32-3.06,1.12.16-.48Z"/>
      <path class="cls-1" d="M540.27,864.95l-.16-1.28-.97-3.54-.48-.96-.96-2.25-.33-.48-.48-1.12-.16-.8-.64-.8-.8-.64-.48-.8-.32-.8-.48-.32-.8-.96-.64-1.28-.65-.64-.8-.64-.8-.8-.64-.48-.16-.32-1.12-.8-.96-.96-.97-.32-.16-.32-.32-1.61-.8-.32-1.12.16-1.12-.32-.32-.16-.8-.32-.48-.32-.64-.32-1.12-.32-.8-.32-1.61-.32-2.25-.64h-1.28l-1.61-.32h-.97l-1.12-.16h-.64l-1.29-.16h-1.29l-.32.16h-.48l-.64.16-1.29-.16-1.93.48-1.29-.16-1.29.32h-.48l-.8.16-1.13.48-.64.16-2.25.8h-.48l-1.77.16-.8.32-1.93.8-.96.32-1.45.64-1.12.64-.96.8-1.12.48-.97.64-1.12.64-.32.16-.97.64-.64.64-.97.8-1.12.96-.16-2.41v-1.77l.16-1.12-.16-4.02.16-.8-.16-.96.16-.96-.16-1.12-.16-.8v-1.13l-.16-1.12.16-4.66-.16-1.13.16-.96-.16-1.12-.16-.8v-1.12l-.16-1.13-.32-4.98v-2.74l-.16-1.12-.16-2.41-.65-.8v-.48l.48-.16v-1.29l-.32-.8-.16-.8-.16-.64-.48-1.44-.64-1.13-.8-.64-1.29-.32-.97-.64-1.76-.48-.97-.32-2.25.16-.8.32-1.77.64-.96.96-.8.64-1.45.32-1.28.64-.33,1.12-.32.96.32,1.45.48.48.65,1.6v.97l.32.8.16,2.41.16,1.13v1.61l.16,1.77.16,1.28v.96l.16,1.13v3.05l-.16,1.12.16,1.45v1.77l.16,1.12.16,1.29.16,1.12v3.06l-.16,1.12.16,1.45v6.11l-.8.64v.96l.8.32.16.8v1.77l-.16,1.13.16,1.12.16.96-.16,1.12.16.32-.16,1.12.16,1.12v7.24l-.32.96.16,1.12-.16,1.61.32,1.77v.8l-.16.96v2.25l.16,1.28-.16.96-.16,4.66.16,2.09v1.13l-.32,1.28.32,1.29v1.93l-.16.48v1.13l-.16.96v3.22l-.32,4.34-.16,2.89-.32,2.57-.64.96-1.45,1.13-.64,1.93v.96l.16.64.32.8v.96l.96,1.12.8.64v.96l.16.8-.16.96v.96l-.16.64.48.96.8.96,1.61.48,1.45,1.44,2.25.16,3.05.16h1.12l.97-.16,2.25-.48.65-.16.64-1.13,3.54.97,1.12.16h1.12l.8.16,1.13.16h1.12l2.09.32h.97l.97.16.96-.16.32.16h1.12l.8.16,1.61-.16h2.58l.96-.32,1.29-.16,1.93-.32,1.29-.16.97-.48.8-.32,1.12-.16,1.44-.16,2.25-.96.97-.48,1.44-.8.65-.48,1.44-.96h.48l.8-.32.48-.8,1.61-.97,1.44-1.44.8-.64,1.29-.8.48-.32,1.12-.8.97-1.13.97-.48,1.44-1.12.64-.32.8-.64.8-.8.65-.48.48-.48,1.13-.64.8-.8.48-.64.33-.48.96-.48.64-.16.65.32.32-.32-.48-.48.16-.32-.16-.32.65-.64.48-1.13,1.13-1.28.64-.48.32-.8.8-1.12.48-.96.96-3.38.48-.8.32-1.12.33-.96.32-1.13.48-1.28.32-1.13.16-.96v-1.12l.16-1.12v-.32l-.48-.64.16-.8.64-.64v-.48l.16-.32v-1.93l.16-.64v-7.88l-.32-.64v-.48ZM524.36,871.54v.8l.65.64v2.41l-.32.8v1.12l-.16.32v.8l-.32.8v.96l-.32.64-.16.8-.48.96v.8l-.32.96-.64.48-.33.96-.32.64-.16.64-.48.8-.48,1.13-.64.8-.65.8-.48.64-.48.16-.65.8-1.44,1.45-.64.32-.48.64-.64.16-.65.48-.8.64-.8.8-.64.16-.48.8-.64.48-.97.64-.16.8-.33.16h-1.12l-.64.64-.48.64-.48.48h-.32l-.64.48-.8.32-.48.48-.97.32-.96.64-.97.48-.16.48-1.77.48-.8.16-.32.48h-.32l-.97.16-.96.32-1.12.16-.97.16-1.44.32-1.45-.16h-.64l-.97-.16-.96.16-.32-.16-1.13-.16h-1.76l-.8-.16-.8-.16h-.8l-1.61-.32-.8-.48-.97-.32-.96-.32-.64-.32.16-.8-.32-.16-.48-.48.16-1.12v-2.74l.8-.96v-.8l-.48-1.28v-1.12l-.16-.97.33-1.93v-1.28l.16-.96v-1.45l-.16-1.29.16-1.28v-.8l-.16-.8.16-.96-.16-1.13-.33-.8.33-.97.16-1.44v-2.57l1.44-.32v-.48l-.8-.16-.48-.64-.16-.8-.16-1.29.32-.96v-1.77l-.16-1.12v-2.09l.16-.64h1.44l.97-.64.48-.64.8-.64.8-.97.65-1.12.48-.64.16-.32,1.77-1.61.96-.64.65-.48.64-.16.48-.48.96-.64.97-.32,1.61-.8.48-.48.48-.16,1.13-.48.32-.16,1.61-.64,1.44-.16h.8l2.57-.48.97-.16h.97l1.28-.16h1.29l.97-.32h2.41l.96.16h.8l.97-.16,1.12.48.32.48,1.44.16h.8l.8.48h.32l.65.64.8.8.96.48.65.48.48.64.8.32.48.48.32.32.8,1.12.65,1.13.8.96.48.96.64,1.77v1.45l.16.8.16,1.29.16,1.12v.64l.16,1.12-.8.64Z"/>
      <polygon class="cls-1" points="613.92 846.95 612.96 845.98 612.48 845.34 611.67 844.54 610.23 843.57 610.06 843.25 607.82 841.32 607.01 840.52 606.36 839.87 605.24 839.55 604.6 839.23 604.28 839.07 602.83 838.59 601.22 837.78 600.1 837.94 599.13 837.78 597.53 837.62 595.76 838.43 595.44 838.43 594.31 839.07 593.51 838.91 593.19 839.07 591.74 839.55 590.78 840.36 590.29 840.52 589.32 841.16 588.68 840.84 588.04 840.03 587.4 840.36 588.04 841.96 587.08 842.45 586.11 843.09 585.63 843.09 584.83 843.25 584.34 843.89 582.9 845.02 582.74 845.66 581.61 846.14 580.64 846.79 579.68 847.91 578.88 848.72 577.91 850.48 577.11 850.48 576.79 848.88 576.47 847.59 576.47 846.62 576.3 845.18 575.98 844.37 575.98 842.12 575.5 840.03 575.18 838.27 574.86 837.3 574.7 836.02 574.22 835.05 574.54 834.41 574.38 833.93 573.74 833.6 573.74 832.96 573.25 831.84 572.93 830.39 572.45 829.26 572.13 828.46 571.32 827.34 570.2 826.85 568.75 826.05 567.62 826.37 566.66 826.53 563.93 825.89 562.8 826.05 561.84 826.69 560.72 826.85 559.26 827.98 558.14 828.3 557.66 829.26 557.5 830.23 557.5 831.35 558.14 832.48 558.14 833.6 558.46 834.57 558.94 835.69 559.43 836.66 560.07 840.68 560.39 842.61 560.72 844.05 560.87 845.02 561.19 845.66 561.19 847.43 561.52 848.55 561.68 849.68 562.16 850.64 562.32 852.41 562.32 853.7 562.64 854.82 562.64 855.15 562.96 855.95 563.13 857.07 563.13 858.2 562.96 859.32 563.28 859.97 563.28 860.61 563.77 861.57 563.45 861.9 563.6 862.7 563.6 863.34 563.93 864.79 564.09 865.27 564.09 866.56 564.41 867.36 564.41 868.65 564.73 869.61 564.57 870.26 564.57 871.06 565.06 872.34 565.06 872.99 565.38 874.44 565.53 875.4 565.53 876.36 565.86 877.33 565.86 878.29 565.86 880.86 566.02 883.44 566.34 884.56 566.02 885.69 566.02 886.65 566.18 887.78 566.02 889.22 566.34 890.67 566.5 891.96 566.5 893.08 566.66 894.05 566.66 895.01 566.82 896.3 566.82 897.1 566.98 898.06 566.98 899.03 567.47 901.12 567.62 904.17 568.11 905.3 568.11 906.42 568.43 907.71 568.43 908.67 568.59 909.8 568.43 911.09 568.59 912.21 568.75 913.34 568.75 914.46 568.91 915.43 569.23 916.39 569.55 918.16 569.72 918.96 570.04 920.09 570.2 920.89 570.52 922.02 571.16 922.82 571.64 923.3 571.96 923.46 572.13 924.11 572.45 924.43 573.09 924.27 573.57 924.27 574.22 925.07 575.82 925.07 576.3 924.43 576.62 924.43 577.91 924.27 578.72 924.75 579.68 925.39 580.97 925.71 583.38 925.07 584.51 924.43 585.15 923.3 586.27 922.66 586.59 920.73 586.27 919.28 585.63 918.32 585.63 917.03 585.47 916.07 585.31 915.27 585.15 914.14 584.98 913.34 584.66 911.73 584.34 910.76 584.18 910.12 584.18 908.51 583.7 907.39 583.7 905.78 583.54 904.82 583.54 902.73 583.38 901.44 583.06 900.48 582.9 899.99 582.74 898.55 582.57 897.1 582.57 894.85 582.1 892.6 581.93 891.64 582.25 890.19 581.93 889.22 581.77 888.58 582.42 887.46 582.25 886.65 581.61 885.69 581.61 884.56 581.61 882.15 581.45 880.86 581.29 879.9 581.13 878.61 581.13 876.85 581.61 876.04 582.1 876.04 583.22 875.88 584.02 875.24 584.98 875.4 585.63 874.6 585.31 873.47 585.63 872.51 585.95 871.7 586.11 871.06 585.79 870.09 585.31 868.49 584.66 867.36 584.34 865.27 584.34 864.31 584.51 863.18 584.51 862.86 584.98 862.38 585.63 861.09 586.59 860.13 587.4 858.84 588.04 858.04 589 857.4 589.49 856.91 590.13 856.59 590.61 855.63 591.1 854.82 591.42 854.82 592.22 854.34 592.86 853.7 593.34 853.38 594.15 853.22 594.95 853.22 595.44 852.89 596.08 852.41 597.36 852.09 597.53 851.77 598.33 851.93 599.13 852.57 599.94 853.22 600.9 853.54 601.38 854.5 601.87 854.98 602.83 855.47 603.63 856.43 604.44 857.07 605.24 857.72 606.36 858.2 608.29 857.88 609.26 856.75 610.23 856.59 611.19 856.59 612.16 856.27 613.12 855.47 613.92 854.18 614.4 853.38 614.57 851.77 614.89 849.84 614.08 848.39 613.92 846.95"/>
      <path class="cls-1" d="M692.86,911.25l-1.12-1.6-.32-.32-.8-1.12-.8-.64-1.29-1.61-.64-.96-.97-.64-.64-.64-.65-.8-1.93-1.93-.48-.64-.64-.48-.96-1.28.32-.97.64-2.57.16-.8.16-.97.32-1.12v-2.25l.16-.97v-1.28l.16-1.12v-2.57l.16-.64-.32-1.13.16-.96v-3.21l.16-1.29-.16-1.28-.16-1.13v-1.28l-.16-.32v-1.28l-.32-2.09v-1.13l-.16-.96-.16-.8v-1.12l-.16-.8-.65-1.93-.48-1.29-.32-.96-.32-1.28-.16-1.13-.32-.32-.64-1.45-.65-1.61v-.64l-.64-.97-.8-.96-.16-.8-.48-1.12-.65-1.12-.8-1.13-.96-1.28-.32-.48-.97-.96-.64-.96-.97-.8-.8-.32-1.12-1.61-.32-.48-.8-.96-.8-.64-1.29-.64-1.44-.96-1.45-.32-1.12-.48-.96-.64-.97-.16-.8-.32h-1.12l-.97-.32-.64.48-.32-.16-.64-.8h-.33l-1.12-.48-2.41-.16-1.12-.16-.96.16-.65-.16h-1.44l-1.12.16-1.12.32-.97.16h-.97l-.8.32-.96.16-.8.16-1.29.32h-1.29l-1.12.16-.16.32-1.29.64-.97.8h-.48l-1.13,1.28-2.41,2.41-.16.48-1.44,1.45-.48.96-1.29.96-.32,1.13-.48.8-.48.64-.16,1.29v1.28l.48.64.8.64.65,1.12.16,1.13.65,1.6,1.44,1.29.8.96,1.12.32.97.32,1.12-.16.64.48,1.12-.16.65-.64.8-.48.32-1.13.48-.48.48-.8.32-.48.8-.96v-.48l.64-.32.65-1.12.8-.64.65-.48.32-.48.64-.32,1.13-.48,1.12-.32h1.28l.8-.16h.97l.97.16h2.09l.97.32.8.32.96.16,1.29.16,1.44.48.33.16.48.48.65.32,1.12.97.48.64.8.32.16.48.65.8,1.44,2.25.8.48v1.29l.32,1.45-.64.96.32.48h.8l.32.32v.32l-1.29.8.16.48.97-.16.64.32.32,1.28.16,1.13.16.96.16.32.16,1.45.33.48v1.45l.16,1.12.16,1.61.32,1.13v.8l.16,1.13.48.32v.32l-.48,1.29.16.48v2.25l-.16.96v2.57l-.33,1.13v1.6l-.16,1.13-.97-.8-.48-.16-.8-.8-1.45-.8-1.12-.48-.96-.64-.97-.48-.8-.64-1.29-.32-.96-.16-.65-.16-.48-.32-.8-.64-1.13-.16-.48-.16-.48.32-.48-.16-.32-.64-.65-.32h-1.12l-.64-.16-.64.16-.97.32-.64.16h-1.77l-1.12.32-1.29.16-.48.16-1.28.48-.97.48-.64.16-.48.32-1.29.32-1.29.97-.32.16-.8.16-.8.32-.8.64-.48.32-1.93,1.13-.8.96-.64,2.73-.8.8-.48,1.45-.32,1.44-.48,1.13-.16.96.32,2.25.32,1.61.32.8.48.96.48,1.61-.48.64.16.48.64.16.48.8.16.64.33.96.16.64.32.8.97,1.29.32.48.48.8.64,1.45,1.12.8.65,1.12.96,1.12.65.64.8.96.8.48h.32l1.61.8,1.29.48,1.12.48.96.48h.97l.96.32h.65l1.93.32,1.29-.16.8.16.96-.16h2.41l1.29-.32h.48l.8-.16h.64l.97-.32,1.44-.96,1.29-.48,1.44-.32.64-.48.65-.8.64-.32.97-.32,1.12-.8.48-.48.8-.48.64-.48.8-.64.64-.48.65-.8.48-.48,1.28-.96.48-.16,1.29,1.12,1.93,2.25.96.8.65.8.96.96.48.96.8.64,1.12.32.8.64h2.41l.97-.48h1.61l1.12-.16.8-.32,1.12-.48,1.12-.96.65-.64.16-1.28.8-.96.16-1.13-.48-.8-.48-.97ZM662.64,901.28l-.64.64-.48.64-.64.96-.64.8-.97.8-.64.48-.97.64-.64.64-.8.48-.97.32-.64.48-1.12.64-.65.16h-2.25l-.8-.32h-.48l-.96-.48-.65-.48-.64-.64-.97-1.61-.32-.96-.64-.48-.32-.8-.33-.48.33-.32-.16-.48.32-.48-.16-.8-.65-.16-.32-.96-.16-1.13.33-.8.32-.32.48-.32.96-.48.64-.64.48-.32,1.61-.64,1.29-.48.8-.16.48.16.64.32.97.32.64.32.97.32.96.48.97.64.48.16.65.32.8.32.96.48.33.48.8.16.8.64.32.32.8.64.48.32v.64Z"/>
      <polygon class="cls-1" points="770.37 913.01 769.24 911.89 769.08 910.92 768.6 909.8 768.11 908.84 767.47 908.19 766.83 908.03 766.03 907.71 765.06 907.39 763.77 907.55 762.97 907.23 761.69 907.23 760.72 907.71 759.76 907.71 758.63 907.71 757.35 907.39 756.06 907.39 755.26 907.23 754.62 907.39 753.81 906.74 753.33 906.58 752.68 906.58 751.88 906.42 750.92 906.42 750.28 906.58 749.47 906.26 748.51 906.1 747.7 906.1 746.58 905.94 745.45 905.46 744 904.82 743.36 904.66 742.88 904.17 742.24 903.69 741.27 903.37 741.27 902.73 740.47 902.41 739.99 901.6 739.99 901.12 739.66 900.32 739.5 899.19 739.34 898.06 739.02 897.26 739.02 896.46 738.86 895.33 738.38 894.53 738.54 893.4 738.54 892.12 738.22 890.99 738.05 889.71 738.05 888.58 738.22 887.78 738.05 886.65 737.9 885.69 737.25 885.04 737.25 884.56 737.9 884.24 737.9 883.92 737.9 883.12 737.73 882.79 737.73 882.31 737.73 881.67 737.58 880.86 737.41 879.58 737.58 878.29 737.25 877.33 737.09 876.52 737.25 874.92 737.09 873.95 737.09 872.67 736.93 871.7 736.77 870.58 736.61 869.45 736.45 868.49 736.61 868 736.45 867.04 736.61 866.72 736.45 866.08 736.61 865.11 737.58 864.95 738.38 864.79 739.02 864.79 740.47 864.31 741.11 864.31 741.75 864.15 743.36 863.99 744.65 863.5 746.09 863.5 746.9 863.18 747.22 863.66 747.54 863.83 747.86 863.66 748.18 863.02 748.83 862.86 750.28 862.38 751.24 862.38 752.36 862.22 753.33 862.06 754.29 861.9 755.58 861.57 756.54 860.93 757.02 860.45 757.35 859.81 758.15 859 758.63 858.2 758.96 857.23 758.96 856.91 759.28 856.27 759.28 854.02 760.4 852.09 760.4 850.8 760.08 849.36 760.08 848.23 759.92 847.75 759.28 846.79 758.15 845.98 757.19 845.82 756.06 845.98 754.77 845.98 754.29 845.98 753.33 846.79 752.85 847.75 751.4 848.23 750.75 848.39 750.43 849.04 750.11 849.2 749.63 848.88 748.02 849.2 747.06 849.36 746.58 849.36 745.13 849.68 744.17 849.68 743.04 849.68 742.24 849.84 741.11 850.16 740.15 850.48 738.86 850.64 737.58 850.64 736.29 850.8 736.29 849.84 736.29 849.04 736.13 848.07 736.13 847.27 736.61 846.46 736.61 845.66 735.97 844.7 736.45 843.57 736.45 842.12 736.45 841.32 736.61 839.71 736.61 838.75 736.45 837.62 736.61 836.66 736.93 835.69 736.77 833.93 736.93 833.12 736.93 832.48 736.77 831.03 736.93 830.71 736.93 828.62 737.09 827.66 736.93 826.53 736.77 824.92 737.58 824.44 737.58 823.8 736.61 823.16 736.61 822.19 736.45 821.55 736.61 820.58 736.45 819.46 736.45 818.49 736.45 817.53 736.13 816.57 735.64 815.6 734.68 814.96 732.27 814.31 730.82 813.67 729.7 812.23 728.73 811.58 727.93 811.26 726.96 811.1 726.16 811.26 724.88 811.42 723.43 811.26 721.34 811.74 720.05 812.55 719.89 814.15 720.05 815.44 720.37 816.41 720.21 817.53 720.37 818.65 720.69 819.46 720.69 820.91 720.69 822.35 720.86 823.8 721.18 824.92 721.01 825.25 721.01 826.21 720.86 827.01 721.01 827.98 721.18 829.75 721.01 830.55 721.01 831.84 721.01 832.8 720.86 833.93 720.86 835.53 720.86 837.3 720.86 837.62 721.01 838.27 720.69 839.07 720.69 840.03 720.69 841 721.18 841.8 721.18 843.09 721.01 843.57 721.01 844.86 721.01 845.98 720.86 847.11 720.86 848.07 720.69 849.2 720.54 850.16 720.54 851.45 720.37 852.25 720.05 852.25 718.45 852.25 717.64 851.93 717.32 851.93 716.52 851.45 715.39 851.29 714.11 851.13 713.14 850.32 712.33 850.16 711.86 850.16 710.89 849.68 710.09 849.2 709.6 849.2 708.64 848.72 707.67 848.72 706.55 848.88 705.1 850 704.3 850.64 703.82 850.8 702.53 850.97 702.05 852.09 700.92 852.57 700.6 853.7 699.63 854.66 699.63 856.27 700.28 857.72 700.92 858.52 702.21 859.16 702.85 859.81 704.14 860.61 704.46 860.93 704.78 861.25 705.91 861.74 706.87 862.22 707.67 862.7 708.8 863.66 710.09 863.83 711.53 864.31 712.33 864.63 713.46 865.11 714.43 865.27 715.39 865.43 716.35 865.92 717.32 866.08 718.45 866.24 719.25 866.08 719.57 866.08 720.54 866.56 720.69 867.36 720.69 868.33 721.01 869.29 720.86 869.61 721.18 870.9 721.34 871.86 721.18 872.83 721.5 873.95 721.82 875.4 721.66 876.2 721.82 876.69 721.98 877.97 721.98 878.29 721.98 879.9 722.14 881.19 722.14 882.15 722.14 883.28 722.14 883.92 722.14 884.72 720.86 885.2 720.69 886.01 721.82 886.33 722.3 886.33 722.62 887.46 721.98 888.74 722.14 889.87 722.95 890.99 722.95 892.28 722.95 893.4 723.27 894.85 723.27 895.98 723.59 897.1 723.59 898.23 723.59 899.03 723.91 899.51 724.23 900.16 723.91 900.96 724.23 902.08 724.39 903.05 724.39 904.17 724.71 905.3 724.88 906.26 725.52 907.07 725.68 907.71 725.84 908.19 726.16 909 727.13 909.48 727.29 909.96 727.61 911.41 728.09 911.89 729.54 912.85 729.22 913.34 729.86 913.82 730.82 914.3 731.3 914.94 731.63 915.1 732.75 915.43 733.56 916.23 734.84 916.55 735.32 916.71 736.29 917.36 737.09 917.84 738.22 918 739.18 918.64 740.15 918.8 740.95 918.96 741.92 919.28 742.88 919.6 743.84 919.6 744.65 919.93 746.26 920.41 747.22 920.41 748.67 920.41 749.47 920.73 750.92 921.05 752.04 921.53 753.33 921.37 754.45 921.53 755.74 921.53 757.35 921.86 758.79 921.7 759.11 921.86 760.24 921.7 760.88 921.7 762.01 921.53 762.49 921.37 762.97 921.7 763.94 921.86 765.22 922.18 766.67 921.7 767.15 921.37 767.96 921.21 769.08 920.73 770.05 919.6 770.85 918.48 771.33 917.68 771.49 916.87 771.65 915.75 771.01 914.14 770.37 913.01"/>
      <polygon class="cls-1" points="810.41 907.23 810.57 906.42 810.41 905.3 810.41 904.17 810.41 903.21 810.41 902.24 810.25 901.12 809.93 900.32 810.09 899.51 810.25 898.39 810.09 897.1 810.09 895.98 809.93 894.85 809.77 893.72 809.6 892.44 809.77 891.15 809.77 889.38 809.44 887.78 809.28 886.97 809.6 885.69 809.28 884.4 809.44 883.6 809.28 882.63 809.28 881.99 809.28 881.03 809.12 879.74 809.28 878.78 809.12 877.97 808.96 876.85 808.96 875.72 808.8 874.6 808.48 873.31 808.16 872.02 808 870.42 807.68 870.26 807.51 868.97 807.36 867.68 806.87 866.56 806.55 865.27 806.55 864.63 806.23 863.34 806.23 862.7 806.07 861.74 806.07 860.45 805.75 859.32 805.59 858.04 805.27 856.91 805.43 856.11 805.43 855.47 804.78 854.02 805.27 852.41 804.62 851.45 804.3 850.48 804.14 849.2 803.82 848.07 803.5 846.79 802.53 845.98 801.57 845.66 800.6 845.5 798.83 845.34 798.19 844.54 797.39 844.37 796.1 844.21 794.66 844.21 794.66 843.57 795.62 843.09 797.39 841.96 798.19 841.16 798.51 839.87 798.83 838.91 799.15 837.78 799.96 837.46 800.6 837.46 800.76 836.82 800.44 836.02 799.8 835.69 800.28 834.89 800.44 834.41 801.25 834.25 802.21 833.93 803.17 833.6 803.98 832.64 804.46 831.84 804.62 830.87 804.62 830.07 804.62 829.1 804.62 828.3 803.82 826.69 803.02 826.21 802.37 825.57 801.25 824.6 800.92 824.28 800.12 823.8 799.15 823.64 797.71 823.48 796.58 823.48 795.78 822.83 795.3 822.83 794.17 822.51 793.05 822.35 791.92 822.67 790.47 822.19 789.51 822.03 788.23 822.51 787.74 822.83 786.46 823.16 785.81 823.8 785.17 824.44 783.89 825.09 783.08 826.05 782.76 827.17 782.44 827.66 781.32 827.82 780.35 828.62 779.71 829.59 779.38 830.55 778.9 831.51 778.74 832 778.1 833.28 777.94 834.25 778.1 835.53 778.1 836.5 778.26 837.62 778.58 838.59 778.74 840.03 779.55 841.32 780.35 842.29 781.15 843.09 781.96 843.57 782.6 844.54 783.4 845.02 784.69 845.34 785.81 845.82 787.1 845.98 787.42 845.98 787.9 846.46 787.9 847.27 788.06 848.39 788.23 849.2 788.55 850.32 788.87 851.61 789.03 853.22 789.03 854.5 789.19 855.79 789.35 856.91 789.51 858.04 789.83 859.32 789.83 860.29 790.47 861.57 790.32 862.7 790.47 863.5 790.64 864.63 790.96 865.43 790.96 866.08 791.12 867.2 791.28 868.49 791.44 868.81 791.44 869.61 791.92 870.58 792.24 871.54 792.24 872.67 792.24 872.99 792.73 874.44 792.89 875.56 792.89 876.69 792.89 878.13 792.89 879.1 793.05 880.22 793.21 881.35 793.37 882.63 793.37 884.24 792.89 884.56 792.89 884.88 793.53 885.53 793.53 885.85 793.37 886.49 792.89 886.49 792.08 886.97 792.08 887.29 792.89 887.94 793.53 888.1 793.69 888.9 793.85 890.19 793.69 890.67 793.69 891.47 793.69 892.28 794.01 893.89 794.01 894.53 794.01 895.65 794.01 896.94 793.85 897.9 793.85 898.87 794.01 899.99 794.01 901.28 794.01 902.24 794.17 902.73 794.17 903.85 794.17 904.98 794.49 905.94 794.17 907.39 794.34 908.84 794.49 909.8 794.34 910.76 794.34 911.73 794.34 912.85 794.34 913.66 794.34 914.78 794.49 915.91 794.49 916.55 794.66 917.68 794.49 918.64 794.66 920.09 794.98 920.73 795.94 921.21 797.07 921.37 798.35 922.02 799.96 922.66 801.41 922.66 801.73 923.3 802.05 923.95 803.34 924.43 804.14 924.59 805.1 924.43 805.59 924.43 806.07 924.43 806.87 924.11 807.51 923.62 808.64 923.14 809.28 922.66 809.93 921.86 810.25 920.89 810.41 920.57 810.73 919.6 810.73 918.64 810.73 917.68 810.41 916.87 810.41 916.07 810.57 915.43 810.57 914.14 810.57 912.85 810.57 912.53 810.73 911.25 810.73 909.8 810.57 908.51 810.41 907.23"/>
      <path class="cls-1" d="M897.55,881.51l-.48-1.13-.33-1.77-.16-.32-.48-1.93v-1.45l-.48-.96-.32-1.77-.32-.8-.16-.48.65-.64v-.8l-.8-.32-.16-1.77-1.12-1.44v-1.13l-.64-1.28-.33-1.29v-.8l-.96-1.28-.48-1.45-.16-.8-.48-1.77-1.29-1.45-.32-.8-.8-.97-.97-1.28-1.61-1.29-.8-.64-1.12-.96-.16-.48-1.61-.96-.8-.8-.97-.8-1.12-1.12-1.12-.8-.32-.32-1.13-.96-1.12-.8-1.76-1.12-.48-.32-1.29-.8-1.29-.32-.32-1.28-.64-.16-1.12.32-.65-.16-1.12-.48h-2.25l-.97.64-.96-.16-1.29-.48h-1.61l-1.76.48-1.77.8-1.61.48-.8.64-1.29.64-.16.48-1.77.8-.96,1.61-1.29,1.29-.97.96-.96.96-.65,1.12-.16.48-.65,1.28-1.44,1.61-.32,1.29-.64,1.44-.65.64-.16.64-.48,1.12-.32.96-.8,1.29-.16,1.77-.16.96-.32,1.12v.32l-.64,1.44-.32,1.93-.16.8.8.48-.16.8-.8.48-.16.8-.32,1.6-.16,1.77-.16,1.61v3.54l.32.64-.32.96v1.45l-.16,1.45v2.89l-.32,1.61v.8l-.16,1.77.16,1.28v1.77l.32,1.61v1.45l.16,1.45.32.96v1.45l.32,1.28.48,1.61.16,1.28.8.97.32,1.28.8.8.8.8.8.64.16,1.28.48,1.45-.32.8.32.32h.8l.8.64.64.32,1.44,1.13,1.45,1.12.96.8,1.29.48.32.32.65.32,1.61.8,1.12.48,1.44.32,1.44.48.97.32,1.77.32,1.28.48,2.09.64,1.44.16h1.45l1.44-.32h4.02l.8-.64,1.44-.16,1.12.32,1.93-.48,1.77-.32,1.77-.48,1.44-.64.96-.16,1.45-.8,1.28-1.13.97-.48,1.44-1.13,1.29-.8,1.29-1.6,1.12-.97,1.12-1.28.32-1.93.97-1.77.8-1.45.16-.8.48-1.45.32-.64.48-1.45v-.32l.8-1.13.48-1.12.32-1.12.32-1.61.48-1.61v-1.93l.16-1.45v-3.06l-.16-2.41-.48-3.22ZM881.8,887.46v2.41l-.16,1.77-.33,1.44-.48,1.29-.48,1.28-.32,1.13-.65,1.12-.8,1.45-.32.48-.32.32-.48.48.16.48v.64l-.48.48-.16.48-.96.64-1.12.48-.48.32-1.12.64-1.61.32-.8-.48-.48.16-.16.64h-.48l-1.12.16-2.25.16-1.44-.16h-1.61l-.8-.32-.48-.16-1.44-.64-1.44-.64-.97-.48-.64-.64-1.13-.32v-.8l-.32-.32-.96.16-.33-.48-.64-.8-.32-.97-.8-2.09.16-.8-.48-.64-.32-2.09-.16-1.77.16-1.61-.16-1.45.16-.32-.16-2.09.16-1.93v-2.57l.16-.96v-.48l.16-1.6v-3.38l.16-1.45.16-1.12.16-1.29v-1.45l.8-2.09.16-.8.32-1.28.16-1.93.96-1.44.48-1.13.32-1.61.48-1.12.8-1.12.65-1.61,1.28-.64,1.29-1.44.8-.8.8-.8.8.16.64.64.97.48.32.16.97.96,1.61.8.48.64,1.13.8.8.96.33.32h.96l.48.48v.64l.8.8.97,1.12.96.96.48.48,1.12,1.12.64.8.48,1.77.32,1.61-.32.48v.32l.65.32.32,1.45.48.8.16.48-.64,1.13-.65.48v.64l1.13.16.8.16.32.8.8.32.16.48-.48.8.48,1.93v.48l.16,1.29.16,1.6.33,1.61.16,2.25v1.45Z"/>
      <polygon class="cls-1" points="986.62 869.45 986.46 868.33 986.14 867.2 986.3 866.08 986.14 865.27 986.14 863.99 985.98 862.7 985.98 862.38 985.82 861.25 985.5 860.13 985.34 859.32 985.02 857.88 984.21 857.07 983.73 855.31 983.09 854.18 982.28 853.38 981.48 852.73 981.32 852.25 981 851.77 981 851.13 980.51 850 979.71 849.2 979.23 848.88 978.58 848.23 977.78 847.59 977.14 846.95 976.34 846.62 975.53 845.98 974.41 845.02 973.6 844.54 973.12 844.37 972.8 843.73 971.68 843.09 970.87 842.93 970.22 842.45 969.58 842.77 969.26 842.45 968.78 841.8 968.3 841.32 968.14 840.68 967.66 840.52 967.17 841 966.37 840.52 964.92 840.52 964.44 840.2 963.48 839.87 962.19 839.71 960.42 839.39 958.33 839.23 957.37 839.39 956.08 839.55 955.12 839.71 954.64 839.87 953.35 839.87 952.39 840.03 951.26 840.52 950.62 840.84 949.17 841.16 948.52 841.32 947.72 841.8 947.08 842.12 946.11 842.45 945.31 843.09 943.86 843.57 943.38 843.89 942.42 844.05 941.62 844.54 940.65 845.18 939.36 845.82 938.72 846.46 938.24 846.79 937.43 847.11 936.47 847.91 935.67 848.55 934.7 849.68 934.06 849.52 934.06 846.62 933.9 845.18 933.9 843.57 934.06 842.61 933.09 841.16 933.09 839.87 932.77 838.75 932.13 837.94 931.01 837.78 930.04 837.62 929.07 837.62 927.47 837.94 926.99 837.94 926.18 837.78 925.06 837.94 924.09 838.43 923.29 839.23 922.16 839.39 920.56 840.03 919.75 840.52 919.11 841.16 918.78 842.12 918.78 842.93 918.46 844.05 918.63 845.02 918.63 846.14 918.78 847.11 918.63 847.91 918.78 848.72 918.95 849.84 918.78 850.97 918.46 852.09 918.63 853.22 918.63 854.18 918.78 855.47 918.78 856.59 918.95 857.72 918.63 859.81 918.63 860.77 918.78 861.74 918.78 863.02 919.11 863.99 918.78 865.27 918.95 866.4 918.95 867.52 919.11 867.84 919.27 868.33 919.27 870.09 918.95 871.06 919.11 872.02 918.95 872.99 918.95 873.79 919.11 875.08 919.11 875.72 919.27 877.01 919.27 878.29 919.43 879.42 919.27 880.54 919.27 881.83 919.43 882.95 919.43 886.01 919.43 887.29 919.59 888.58 919.91 889.55 919.91 890.35 920.07 891.31 920.07 894.05 920.24 895.01 920.24 899.67 920.39 900.64 920.39 901.76 920.56 903.05 920.56 903.53 920.88 904.33 920.88 905.62 921.04 906.58 920.72 907.71 920.72 908.84 921.04 910.76 920.88 911.57 920.72 912.69 920.88 913.66 920.88 914.62 920.72 916.55 920.88 917.84 921.52 918.96 922.97 919.44 923.61 919.6 924.26 920.57 925.38 920.89 926.5 921.37 927.63 921.53 929.07 921.86 930.36 922.02 932.13 922.02 933.41 921.53 934.38 921.53 935.02 920.73 935.5 919.93 935.82 919.6 936.31 918.64 936.47 917.68 936.47 915.27 936.47 914.14 936.47 911.25 936.31 908.35 936.47 907.23 936.31 906.1 936.47 904.98 936.31 904.33 936.15 902.57 936.15 901.6 935.99 900.48 935.99 899.51 935.82 898.55 935.67 896.46 935.82 895.01 935.35 892.28 935.5 891.31 935.5 889.87 935.35 888.1 935.99 887.78 936.63 887.46 936.95 886.33 937.43 885.85 938.4 885.69 938.56 884.88 938.24 883.76 938.24 882.31 937.76 881.19 936.79 880.06 936.47 878.78 936.47 878.29 936.47 877.33 935.67 875.4 935.18 874.6 935.18 873.31 935.5 872.34 935.5 871.38 935.67 870.58 935.67 870.09 936.47 868.97 937.11 868 937.43 866.88 938.24 866.08 939.2 864.79 940.33 863.83 940.65 862.7 941.77 861.74 942.26 860.77 942.9 860.13 943.22 859.97 944.03 859.32 944.67 858.52 945.47 857.88 946.6 857.56 947.24 857.07 947.88 856.75 948.52 856.27 949.17 856.11 949.97 856.75 950.94 857.23 951.26 857.07 950.78 855.63 950.78 855.31 951.1 854.98 952.54 854.82 953.83 854.18 954.31 853.86 955.6 853.54 956.88 853.22 958.33 853.06 959.94 853.38 960.58 854.02 961.87 854.34 962.83 854.66 963.48 854.82 964.28 855.63 964.92 856.27 965.88 856.75 966.37 857.56 967.17 858.2 967.82 859 967.98 859.97 968.94 861.41 969.58 861.74 969.9 862.54 969.43 863.66 969.9 864.63 970.87 865.11 971.03 865.59 970.22 866.72 970.55 867.84 970.55 868.97 970.39 869.77 970.39 873.15 970.07 875.4 969.9 876.85 969.75 878.13 969.26 879.42 968.94 880.54 968.78 881.83 968.62 882.79 967.98 884.4 967.66 885.53 967.01 887.78 966.69 889.22 966.37 890.35 965.56 892.92 964.6 894.21 964.44 895.33 963.15 898.06 962.67 899.19 962.35 899.99 961.87 900.8 960.9 901.76 960.42 902.41 959.46 902.73 958.81 903.53 957.69 903.85 957.05 904.17 956.56 905.3 956.56 905.78 955.76 907.39 956.08 908.67 957.2 909.8 957.53 910.6 958.17 911.41 958.98 911.89 960.1 912.53 960.9 912.69 961.87 913.18 963 913.66 964.12 913.98 965.41 914.14 966.37 913.98 967.49 914.14 968.62 913.66 969.58 913.18 970.22 913.18 970.87 913.01 971.83 912.53 972.64 911.73 972.96 911.09 974.09 909.8 975.05 909.32 975.53 908.51 976.17 907.23 976.66 905.94 976.98 905.14 977.3 904.17 978.26 903.05 978.75 902.24 978.91 901.44 979.71 900.64 979.71 898.71 980.51 898.06 980.51 896.94 980.68 896.46 981.32 895.49 981.32 894.53 981.8 893.56 981.96 892.76 982.12 891.64 982.77 890.83 983.09 889.71 983.09 888.58 983.25 888.1 983.73 887.13 983.89 886.17 984.21 885.04 984.53 883.44 985.02 881.51 985.02 880.38 985.18 879.58 985.82 877.49 985.98 875.4 986.14 874.92 986.46 873.95 986.62 872.83 986.46 871.7 986.79 870.58 986.62 869.45"/>
      <polygon class="cls-1" points="1065.4 898.55 1064.76 897.42 1064.44 896.3 1063.64 895.01 1063.32 894.85 1062.99 894.37 1062.51 893.4 1061.87 892.92 1061.55 893.08 1061.23 892.76 1061.38 892.12 1061.06 891.64 1060.1 890.35 1058.98 889.38 1058.65 888.74 1057.69 887.78 1057.53 887.46 1056.72 886.65 1056.08 886.01 1055.28 885.04 1054.8 884.24 1054.31 883.76 1053.51 883.12 1053.03 882.79 1052.55 882.31 1052.06 881.67 1051.26 880.7 1050.46 880.06 1050.14 879.9 1049.49 879.1 1048.85 878.29 1047.89 877.81 1047.24 877.01 1046.12 876.52 1045.47 876.2 1044.67 875.4 1044.35 874.92 1043.7 874.6 1043.22 874.27 1042.26 873.47 1041.46 873.15 1041.13 872.99 1040.33 872.51 1039.53 872.02 1038.72 871.54 1037.76 870.9 1036.95 870.58 1036.31 869.77 1035.34 869.13 1034.86 868.97 1034.22 868.49 1033.26 867.68 1032.61 867.2 1031.65 866.72 1030.85 865.92 1030.2 865.43 1029.24 864.31 1028.76 863.99 1027.95 863.18 1027.47 862.86 1027.15 862.06 1026.66 861.57 1026.34 860.77 1025.54 859.97 1025.22 859 1024.74 858.36 1024.42 857.88 1024.25 856.91 1023.93 856.11 1023.93 855.31 1023.77 854.98 1023.29 854.18 1022.81 852.89 1022.64 851.45 1022.64 850.16 1022.49 849.36 1022.97 848.39 1023.77 848.23 1025.7 848.23 1026.51 847.75 1027.63 848.07 1030.04 848.55 1030.85 849.2 1031.97 849.36 1032.61 849.52 1033.74 850.16 1034.38 850.64 1035.19 850.64 1035.66 850.8 1036.47 851.29 1037.6 851.45 1038.4 852.25 1039.36 853.7 1040.49 854.18 1040.97 854.98 1041.94 855.47 1042.42 856.11 1042.9 856.91 1043.38 857.56 1044.02 858.04 1044.51 858.68 1044.51 859.65 1044.99 860.45 1045.31 860.93 1045.95 861.41 1047.24 861.41 1048.04 861.74 1049.01 862.38 1051.1 863.02 1052.23 863.18 1053.35 863.18 1054.48 862.86 1055.6 862.22 1056.24 861.57 1057.21 861.41 1058.33 859.81 1058.65 858.84 1059.3 857.72 1058.98 855.95 1059.14 854.34 1058.65 852.89 1058.01 852.09 1057.37 850.97 1056.89 850.64 1056.4 850 1056.08 849.36 1055.44 848.72 1054.64 847.59 1054.48 847.27 1054.15 846.79 1053.83 846.46 1053.35 845.82 1052.7 845.18 1052.23 844.86 1051.9 844.37 1052.38 843.73 1052.38 843.09 1051.9 842.77 1050.78 843.09 1050.46 842.77 1049.49 841.96 1048.53 841.48 1047.4 841 1046.6 839.87 1045.63 839.39 1044.83 838.75 1043.7 838.43 1043.38 838.11 1042.58 837.62 1041.78 837.3 1040.97 836.82 1040.01 836.5 1039.36 836.18 1038.72 836.02 1037.44 835.69 1036.47 835.37 1035.83 835.05 1034.7 834.57 1033.74 834.41 1032.45 834.25 1031.97 833.93 1030.85 833.77 1029.88 833.6 1028.92 833.44 1027.95 833.28 1027.63 833.12 1025.22 833.12 1024.9 833.28 1024.09 832.96 1023.13 833.12 1022.32 832.96 1020.56 833.28 1019.75 833.6 1018.3 833.6 1017.34 834.09 1016.54 834.89 1015.41 834.89 1014.61 835.37 1013.64 836.5 1013 837.14 1012.36 837.62 1011.39 838.59 1010.43 839.55 1009.94 840.36 1008.82 841 1008.02 842.45 1007.86 844.21 1007.7 845.34 1007.86 846.46 1007.7 847.27 1007.7 849.52 1007.54 850.64 1007.86 851.77 1008.02 852.41 1008.02 853.22 1007.7 854.02 1007.86 854.82 1007.86 855.79 1008.66 858.84 1009.47 860.13 1009.62 861.57 1010.11 862.22 1010.75 863.5 1011.39 864.31 1012.04 864.95 1012.04 865.43 1012.52 866.4 1013 866.88 1013.49 867.84 1013.96 868.49 1014.13 869.45 1015.09 870.26 1015.74 871.06 1016.06 871.86 1016.38 872.51 1017.02 872.99 1017.5 873.47 1018.47 874.11 1019.11 874.76 1019.91 875.72 1020.88 876.2 1021.36 876.85 1022.17 877.33 1022.81 877.65 1023.61 878.13 1024.09 878.61 1024.57 879.1 1025.38 879.74 1026.18 880.22 1027.15 880.86 1028.11 881.51 1029.24 882.15 1030.04 882.63 1030.68 883.6 1031.97 884.08 1032.45 884.72 1033.26 885.2 1033.9 885.53 1034.86 885.85 1035.66 886.49 1036.79 887.13 1038.72 888.9 1039.36 889.38 1039.85 889.87 1040.81 890.67 1041.46 891.15 1042.42 891.96 1043.55 893.08 1043.7 893.4 1044.51 894.53 1045.15 894.85 1045.47 895.49 1045.95 895.98 1045.8 896.46 1046.12 896.78 1046.76 896.78 1047.08 897.1 1047.56 897.1 1047.89 897.42 1047.72 898.06 1048.04 898.39 1048.69 898.71 1049.01 899.67 1049.33 900.32 1049.81 900.64 1049.81 901.44 1049.49 902.08 1049.01 902.08 1048.53 902.24 1048.04 902.73 1047.4 903.53 1046.28 904.17 1045.63 904.82 1045.31 905.3 1044.67 905.62 1043.55 906.58 1042.42 907.07 1041.13 908.03 1040.17 908.03 1039.53 908.51 1039.21 908.67 1037.76 908.67 1037.11 908.84 1036.79 909 1035.83 908.67 1035.02 908.67 1034.06 908.35 1033.1 908.19 1032.45 907.87 1031.97 908.03 1031 907.71 1029.88 907.07 1029.56 906.91 1028.43 906.1 1027.31 905.78 1026.66 905.46 1026.02 905.14 1024.74 904.33 1023.77 903.53 1023.13 903.21 1021.52 901.6 1021.68 900.32 1021.36 899.51 1021.04 898.87 1020.72 898.23 1019.43 898.06 1018.79 897.26 1017.98 896.78 1017.5 896.78 1016.54 896.3 1015.25 896.62 1014.13 896.46 1011.88 896.62 1010.75 897.42 1009.94 898.06 1009.15 898.55 1008.18 899.19 1007.7 899.67 1007.38 901.44 1007.06 902.24 1007.38 903.53 1007.06 904.66 1007.54 905.78 1008.02 906.26 1008.02 907.55 1008.18 908.35 1008.98 909.64 1009.47 910.44 1009.79 911.41 1011.23 913.18 1012.04 913.66 1013.16 914.14 1013.64 914.62 1014.28 914.94 1014.93 914.94 1015.41 915.27 1015.41 915.91 1016.22 916.55 1017.18 917.03 1018.79 917.19 1019.75 918.32 1020.88 918.96 1021.52 919.77 1022.81 920.09 1024.09 920.57 1025.38 921.05 1026.34 921.53 1027.31 921.7 1028.43 921.53 1029.4 922.02 1030.36 922.5 1031.49 922.5 1032.13 922.66 1033.26 922.82 1034.38 922.98 1034.7 922.82 1035.66 922.98 1037.44 922.98 1038.4 922.66 1038.88 922.66 1040.33 922.66 1040.81 922.5 1042.26 922.34 1043.22 921.7 1044.19 921.37 1045.31 921.21 1046.44 921.05 1047.08 920.73 1048.04 920.09 1049.17 919.77 1050.14 918.96 1051.26 918.48 1051.9 918 1053.03 917.19 1053.67 917.03 1054.15 916.55 1054.64 916.23 1055.76 915.59 1056.4 915.1 1057.21 914.62 1057.85 913.98 1058.33 913.66 1058.65 913.34 1059.78 912.85 1060.59 911.57 1061.23 910.92 1061.71 910.28 1062.35 909.48 1062.67 909 1063.32 908.19 1063.48 907.55 1063.96 907.23 1064.28 906.42 1064.76 905.78 1064.93 904.66 1065.25 904.01 1065.4 903.05 1065.72 902.24 1065.72 900.96 1065.25 899.99 1065.4 898.55"/>
      <path class="cls-1" d="M750.66,347.56c-6.43-2.38-11.5-7.45-13.88-13.88l-3.73-10.07c-.65-1.77-3.16-1.77-3.81,0l-3.73,10.07c-2.38,6.43-7.45,11.5-13.88,13.88l-10.07,3.73c-1.77.65-1.77,3.16,0,3.81l10.07,3.73c6.43,2.38,11.5,7.45,13.88,13.88l3.73,10.07c.65,1.77,3.16,1.77,3.81,0l3.73-10.07c2.38-6.43,7.45-11.5,13.88-13.88l10.07-3.73c1.77-.65,1.77-3.16,0-3.81l-10.07-3.73Z"/>
    </g>
  </g>
</svg>